<svg width="1200" height="630" viewBox="0 0 1200 630" fill="none" xmlns="http://www.w3.org/2000/svg">
  <rect width="1200" height="630" fill="#0F172A"/>
  <rect x="64" y="64" width="1072" height="502" rx="32" fill="#111827" stroke="#334155" stroke-width="2"/>
  <rect x="112" y="126" width="244" height="340" rx="24" fill="#0B1220" stroke="#1E293B"/>
  <rect x="144" y="170" width="180" height="18" rx="9" fill="#334155"/>
  <rect x="144" y="210" width="128" height="18" rx="9" fill="#1D4ED8"/>
  <rect x="144" y="250" width="156" height="18" rx="9" fill="#334155"/>
  <rect x="144" y="290" width="132" height="18" rx="9" fill="#334155"/>
  <rect x="144" y="330" width="164" height="18" rx="9" fill="#334155"/>
  <rect x="398" y="126" width="688" height="72" rx="20" fill="#0B1220" stroke="#1E293B"/>
  <rect x="438" y="150" width="364" height="24" rx="12" fill="#1E293B"/>
  <rect x="824" y="144" width="220" height="36" rx="18" fill="#1D4ED8"/>
  <rect x="398" y="228" width="212" height="124" rx="24" fill="#111827" stroke="#1E293B"/>
  <rect x="636" y="228" width="212" height="124" rx="24" fill="#111827" stroke="#1E293B"/>
  <rect x="874" y="228" width="212" height="124" rx="24" fill="#111827" stroke="#1E293B"/>
  <rect x="398" y="382" width="688" height="134" rx="24" fill="#0B1220" stroke="#1E293B"/>
  <text x="112" y="526" fill="#E2E8F0" font-family="Arial, sans-serif" font-size="44" font-weight="700">Asset Resolve</text>
  <text x="112" y="566" fill="#94A3B8" font-family="Arial, sans-serif" font-size="24">
    Role-based asset lifecycle management with workflows, verification, and audit visibility
  </text>
</svg>
